<svg xmlns="http://www.w3.org/2000/svg" width="196" height="62" viewBox="0 0 196 62" role="img" aria-label="WEBSITE"><style>@keyframes pl{0%,100%{opacity:.03}50%{opacity:.16}}.g{animation:pl 3.4s ease-in-out infinite}@media (prefers-reduced-motion:reduce){.g{animation:none;opacity:.08}}</style><rect x="3" y="4" width="190" height="55" rx="9" fill="#848280"/><rect x="3" y="2" width="190" height="53" rx="9" fill="#f1eeea" stroke="#d8d4d0"/><rect x="7" y="5" width="182" height="2" rx="1" fill="#ffffff"/><rect class="g" x="3" y="2" width="190" height="53" rx="9" fill="#e2521a"/><g transform="translate(22.0,34.0) scale(0.01900,-0.01900)" fill="#e2521a"><path d="M133 536H80V590H133ZM80 483H27V536H80ZM80 429H27V483H80ZM80 376H27V429H80ZM80 322H27V376H80ZM80 269H27V322H80ZM80 215H27V269H80ZM80 162H27V215H80ZM133 108H80V162H133ZM133 590H80V643H133ZM187 643H133V697H187ZM133 55H80V108H133ZM187 1H133V55H187ZM241 376H187V430H241ZM241 323H187V376H241ZM294 430H241V483H294ZM241 269H187V323H241ZM294 216H241V269H294ZM348 483H293V537H348ZM401 483H348V537H401ZM348 162H293V216H348ZM401 162H348V216H401ZM453 483H401V537H453ZM508 430H453V483H508ZM453 162H401V216H453ZM508 216H453V269H508ZM614 429H561V483H614ZM614 483H561V536H614ZM614 376H561V429H614ZM614 215H561V269H614ZM614 322H561V376H614ZM614 269H561V322H614ZM614 162H561V215H614ZM668 643H614V697H668ZM668 108H614V162H668ZM722 590H668V643H722ZM722 536H668V590H722ZM722 536H774V483H722ZM722 483H774V429H722ZM722 429H774V376H722ZM722 376H774V322H722ZM722 322H774V269H722ZM722 269H774V215H722ZM722 162H668V215H722ZM241 643H187V697H241ZM241 750H293V697H241ZM293 750H348V697H293ZM348 750H401V697H348ZM401 750H453V697H401ZM453 750H508V697H453ZM508 750H561V697H508ZM614 643H560V697H614ZM241 1H187V55H241ZM241 1H293V-52H241ZM293 1H348V-52H293ZM348 1H401V-52H348ZM401 1H453V-52H401ZM453 1H508V-52H453ZM508 1H561V-52H508ZM561 1H614V-52H561ZM614 1H668V-52H614ZM722 1H668V55H722ZM722 55H774V1H722ZM561 429H508V483H561ZM561 483H508V536H561ZM561 376H508V429H561ZM561 215H508V269H561ZM561 322H508V376H561ZM561 269H508V322H561ZM561 162H508V215H561ZM615 108H561V162H615ZM668 590H614V643H668ZM668 536H614V590H668ZM668 536H722V483H668ZM668 483H722V429H668ZM668 429H722V376H668ZM668 376H722V322H668ZM668 322H722V269H668ZM668 269H722V215H668ZM560 643H507V697H560ZM722 108H668V162H722ZM774 162H720V215H774ZM133 162H80V216H133ZM187 55H133V109H187ZM241 55H187V109H241ZM241 55H293V1H241ZM293 55H348V1H293ZM348 55H401V1H348ZM401 55H453V1H401ZM453 55H508V1H453ZM508 55H561V1H508ZM561 55H614V1H561ZM614 55H668V1H614ZM722 109H774V55H722ZM187 590H133V644H187ZM241 590H187V644H241ZM241 697H293V644H241ZM293 697H348V644H293ZM348 697H401V644H348ZM401 697H453V644H401ZM453 697H508V644H453ZM614 590H560V644H614ZM560 590H507V644H560ZM186 536H133V590H186ZM133 483H80V536H133ZM133 429H80V483H133ZM133 376H80V429H133ZM133 322H80V376H133ZM133 269H80V322H133ZM133 215H80V269H133ZM186 108H133V162H186ZM186 162H133V216H186ZM186 482H133V536H186ZM295 376H241V430H295ZM295 323H241V376H295ZM348 430H294V483H348ZM295 269H241V323H295ZM347 216H294V269H347ZM453 430H398V483H453ZM453 216H398V269H453ZM508 377H453V430H508ZM508 269H453V322H508ZM668 161H614V215H668ZM668 1H722V-52H668ZM295 55H241V109H295ZM295 590H241V644H295ZM401 430H348V484H401ZM400 215H347V269H400ZM348 376H295V430H348ZM348 269H295V323H348Z" transform="translate(0,0)"/></g><g transform="translate(54.0,34.0) scale(0.01500,-0.01500)" fill="#3d2817"><path d="M27 700H135V592H189V485H243V323H350V485H404V592H458V700H566V592H619V485H673V323H781V485H835V592H889V700H996V592H943V485H889V323H835V162H781V0H673V162H619V323H565V485H458V323H404V162H350V0H242V162H189V323H135V485H81V592H27Z" transform="translate(0,0)"/><path d="M27 700H512V592H135V431H458V323H135V108H512V0H27Z" transform="translate(1073,0)"/><path d="M27 700H404V646H458V592H512V431H458V323H512V269H566V108H512V54H458V0H27ZM135 592V377H350V431H404V538H350V592ZM135 269V108H404V162H458V215H404V269Z" transform="translate(1662,0)"/><path d="M81 431H27V592H81V646H134V700H458V646H511V592H565V484H457V538H404V592H188V538H134V485H188V431H458V377H511V323H565V108H511V54H458V0H134V54H81V108H27V215H134V162H188V108H404V162H458V269H405V323H134V377H81Z" transform="translate(2305,0)"/><path d="M27 700H135V0H27Z" transform="translate(2947,0)"/><path d="M27 700H564V592H350V0H242V592H27Z" transform="translate(3159,0)"/><path d="M27 700H512V592H135V431H458V323H135V108H512V0H27Z" transform="translate(3800,0)"/></g></svg>
